<svg xmlns="http://www.w3.org/2000/svg" viewBox="0 0 1920 1080"><g transform="          rotate(325 960 540)           translate(-805.289747223218 -452.9754828130601)          scale(1.838843486690852)        "><rect width="1920" height="1080" fill="rgb(18, 123, 167)"></rect><g transform="translate(0, 0)"><path fill="rgb(34, 133, 174)" fill-opacity="1" d="M0,211.766L32,210.045C64,208.324,128,204.882,192,204.349C256,203.815,320,206.19,384,206.457C448,206.724,512,204.883,576,181.91C640,158.936,704,114.83,768,111.105C832,107.38,896,144.036,960,132.802C1024,121.567,1088,62.441,1152,59.088C1216,55.735,1280,108.155,1344,121.211C1408,134.268,1472,107.962,1536,83.613C1600,59.265,1664,36.873,1728,48.431C1792,59.99,1856,105.497,1888,128.251L1920,151.005L1920,1080L1888,1080C1856,1080,1792,1080,1728,1080C1664,1080,1600,1080,1536,1080C1472,1080,1408,1080,1344,1080C1280,1080,1216,1080,1152,1080C1088,1080,1024,1080,960,1080C896,1080,832,1080,768,1080C704,1080,640,1080,576,1080C512,1080,448,1080,384,1080C320,1080,256,1080,192,1080C128,1080,64,1080,32,1080L0,1080Z"></path></g><g transform="translate(0, 216)"><path fill="rgb(51, 143, 182)" fill-opacity="1" d="M0,63.715L32,63.7C64,63.685,128,63.654,192,84.765C256,105.875,320,148.126,384,170.818C448,193.51,512,196.643,576,170.805C640,144.967,704,90.158,768,67.574C832,44.99,896,54.631,960,75.764C1024,96.896,1088,129.519,1152,152.598C1216,175.676,1280,189.21,1344,180.309C1408,171.407,1472,140.071,1536,108.188C1600,76.304,1664,43.874,1728,26.019C1792,8.164,1856,4.885,1888,3.245L1920,1.605L1920,864L1888,864C1856,864,1792,864,1728,864C1664,864,1600,864,1536,864C1472,864,1408,864,1344,864C1280,864,1216,864,1152,864C1088,864,1024,864,960,864C896,864,832,864,768,864C704,864,640,864,576,864C512,864,448,864,384,864C320,864,256,864,192,864C128,864,64,864,32,864L0,864Z"></path></g><g transform="translate(0, 432)"><path fill="rgb(67, 153, 189)" fill-opacity="1" d="M0,130.019L32,122.072C64,114.124,128,98.228,192,81.706C256,65.185,320,48.037,384,43.353C448,38.669,512,46.447,576,51.965C640,57.483,704,60.739,768,79.834C832,98.928,896,133.861,960,157.65C1024,181.439,1088,194.085,1152,201.671C1216,209.256,1280,211.781,1344,197.174C1408,182.567,1472,150.829,1536,125.577C1600,100.325,1664,81.56,1728,65.182C1792,48.804,1856,34.813,1888,27.818L1920,20.822L1920,648L1888,648C1856,648,1792,648,1728,648C1664,648,1600,648,1536,648C1472,648,1408,648,1344,648C1280,648,1216,648,1152,648C1088,648,1024,648,960,648C896,648,832,648,768,648C704,648,640,648,576,648C512,648,448,648,384,648C320,648,256,648,192,648C128,648,64,648,32,648L0,648Z"></path></g><g transform="translate(0, 648)"><path fill="rgb(84, 163, 197)" fill-opacity="1" d="M0,186.819L32,190.966C64,195.113,128,203.408,192,207.849C256,212.29,320,212.879,384,200.569C448,188.259,512,163.051,576,147.31C640,131.569,704,125.295,768,112.475C832,99.655,896,80.29,960,95.586C1024,110.882,1088,160.839,1152,181.672C1216,202.506,1280,194.215,1344,191.858C1408,189.501,1472,193.078,1536,188.928C1600,184.778,1664,172.902,1728,143.273C1792,113.645,1856,66.265,1888,42.575L1920,18.885L1920,432L1888,432C1856,432,1792,432,1728,432C1664,432,1600,432,1536,432C1472,432,1408,432,1344,432C1280,432,1216,432,1152,432C1088,432,1024,432,960,432C896,432,832,432,768,432C704,432,640,432,576,432C512,432,448,432,384,432C320,432,256,432,192,432C128,432,64,432,32,432L0,432Z"></path></g><g transform="translate(0, 864)"><path fill="rgb(100, 173, 204)" fill-opacity="1" d="M0,195.068L32,179.047C64,163.026,128,130.984,192,103.738C256,76.492,320,54.041,384,53.578C448,53.116,512,74.641,576,104.636C640,134.631,704,173.096,768,175.404C832,177.711,896,143.859,960,123.912C1024,103.964,1088,97.92,1152,81.858C1216,65.796,1280,39.716,1344,26.367C1408,13.018,1472,12.4,1536,24.143C1600,35.885,1664,59.988,1728,92.654C1792,125.321,1856,166.55,1888,187.165L1920,207.78L1920,216L1888,216C1856,216,1792,216,1728,216C1664,216,1600,216,1536,216C1472,216,1408,216,1344,216C1280,216,1216,216,1152,216C1088,216,1024,216,960,216C896,216,832,216,768,216C704,216,640,216,576,216C512,216,448,216,384,216C320,216,256,216,192,216C128,216,64,216,32,216L0,216Z"></path></g></g></svg>